<?xml version="1.0" encoding="utf-8"?>
<svg version="1.1" id="Layer_1" xmlns="http://www.w3.org/2000/svg" xmlns:xlink="http://www.w3.org/1999/xlink" x="0px" y="0px"
	 viewBox="0 0 1140.261 1657.802" enable-background="new 0 0 1140.261 1657.802" xml:space="preserve">
<path d="M464.627,29.919c7.863-0.156,32.324-6.423,66.201,14.128c27.733,16.939,56.16,51.038,46.635,70.361
	c-20.582-83.399-151.979-68.389-158.008,21.919c76.907-95.51,145.221-27.998,164.835,27.746
	c-18.953-31.605-76.493-66.807-92.937-5.79c25.981-15.181,51.646,19.922,83.043,24.828c39.696-68.307,123.9-71.567,155.645-21.409
	c-22.834-17.813-118.918-23.331-102.016,45.329c9.236,4.827,18.324,9.903,27.283,15.221c13.98-44.321,131.914-23.66,144.584,6.059
	c-25.232-20.462-110.446-4.449-99.783,20.77c3.254,8.235,8.765,9.085,30.571,30.293c38.942-32.153,89.196,27.194,86.674,55.686
	c-6.206-11.881-37.868-32.913-49.387-28.987c-11.165,4.033,5.27,27.044,11.932,43.902c65.937-0.341,64.869,90.514,49.905,113.892
	c-8.238-28.324-29.393-98.568-39.465-70.814c-3.256,10.051-20.042,113.264,49.211,191.812
	c15.348-232.687,6.472-251.106-62.014-347.291c56.331,2.119,171.373,99.344,128.65,194.545
	c65.349-3.788,99.573,30.514,69.61,107.834c96.344,15.243,16.274,91.65-42.17,98.495c58.901,12.469,72.106-1.415,102.905-37.89
	c-2.135,67.612,34.146,113.989-54.547,115.087c108.899,11.442,103.066,242.815,53.092,295.097
	c-4.05-143.942-48.477-274.12-188.848-306.65c137.978,64.898,215.062,206.212,134.218,360.038
	c110.362,184.712-223.617,317.842-242.709,270.409c25.517,7.272,100.929-39.856,120.609-72.992
	c19.313-33.855-22.957-35.631-61.893-39.381c-289.279-32.794-282.329,211.976-42.096,161.334
	c8.552,29.029-53.828,71.083-138.22,67.164c89.05,45.768-25.251,137.541-98.94,145.214c89.835-16.239,22.511-199.02-14.35-177.648
	c57.484,153.697,36.509,225.492-126.204,208.126c-73.056-0.544-108.38-72.671-94.077-133.514
	c14.913-61.944,94.452-40.325,104.174-5.818c4.969,17.299-9.428,32.203-23.975,42.791c49.672,93.397,117.533,56.014,108.047-37.538
	c-5.66-53.257-28.875-84.946-37.834-113.624c-10.247-32.135-1.729-71.98,16.379-100.849
	c33.471-53.594,103.422-88.24,162.112-113.003c172.182-71.523,274.268-68.522,299.655-184.697
	c14.325-71.682,10.291-175.29-65.404-171.83c8.699,1.566,15.897,7.3,21.641,13.748c67.641,77.055,17.892,224.499-68.193,241.19
	c-61.27,12.254-143.554-42.034-175.767-93.53c0.064,20.476,0.291,80.647,14.535,95.077c18.174-7.837,44.028,8.546,59.781,20.288
	c-21.699-10.008-47.478-9.322-64.923,8.301c0.645,14.779-4.737,23.749-19.834,23.16c-38.744-1.839-98.387-53.962-102.007-56.168
	c-3.347,7.88,1.137,29.171,1.779,55.834c0.782,11.163-10.445,38.588-14.044,73.334c-4.225,33.444-61.548,56.04-71.861,38.529
	c11.942-3.874,30.483-23.667,38.427-33.582c-0.13-0.852-0.38-2.566-0.5-3.418c0.408,0.964,0.834,1.945,1.278,2.946
	c12.898-25.288,8.197-32.076,13.294-41.892c3.242-6.902,8.236-13.878,6.781-21.919c-13.343-71.37-16.664-87.59-24.976-82.728
	c-34.824-12.831-69.601-25.782-104.387-38.733c-33.666,12.967-81.377,26.877-79.254-9.153c-16.981,2.483-33.981,4.928-50.971,7.374
	c20.934-19.163,19.013-28.648,70.453-27.94c56.046,1.587,66.729-4.75,105.823,27.033c-12.34-24.392-24.633-48.812-37.038-73.167
	c-28.341,2.242-77.156-4.588-74.112-32.628c-14.072-8.829-28.228-17.5-42.309-26.301c18.185-7.485,38.891-3.381,55.612,5.883
	c18.973-4.131,51.194,7.339,69.453,14.637c15.665,27.709,31.257,55.445,46.922,83.154c0.63-30.358,1.223-60.707,1.834-91.066
	c-33.004,0.644-79.526-38.595-81.413-75.539c-8.1-17.884-32.009-12.434-46.311-14.424c18.36-17.297,42.179-18.39,60.587,1.214
	c10.203,9.297,13.595,1.623,41.438,27.181c59.411,56.183,49.7,50.071,57.798,131.438c4.861,41.889-3.074,7.397,125.056,102.146
	c-22.966-21.392-51.487-60.724-69.545-86.619c-38.398-55.577-66.882-102.015-14.183-111.586
	c19.954-3.258,67.854-3.925,100.524,1.945c49.686,8.703,84.962,30.988,129.039,48.479
	c-37.009-165.686-154.864-237.871-172.608-152.783c7.569-3.733,15.721-6.568,24.207-7.013c56.732-3.401,37.277,84.193,8.44,94.984
	c-21.567,7.968-55.007-3.006-74.038-25.365c-20.388-23.875-14.158-45.974-8.801-65.043c30.86-101.593,146.383-82.887,191.025-5.948
	c9.12-18.416-36.86-82.524-127.816-90.306c-57.189-4.684-102.232,42.359-135.672,73.038
	c-9.077-39.183-55.658-168.766-80.838-205.653c-3.992-6.191-59.197-46.719-7.735-57.159c25.192-4.777,35.5,1.957,45.487-6.364
	c22.652-18.795,2.366-55.114-21.159-74.066c-1.539,18.811-28.362,79.173-41.401,38.159c-12.256,10.413-24.809,20.492-37.77,30.025
	c22.77-60.978,61.391-92.326,72.436-97.967c12.64-6.68,44.332,6.117,55.204,81.561c11.469-7.616,38.081-26.533,43.467-38.918
	c2.536-21.781-76.289-88.85-26.82-94.929c-0.056-12.877-0.13-25.763-0.157-38.64c18.724,35.739,48.013,98.07,49.109,138.248
	c-0.087,18.192-2.618,19.396-15.545,32.017c-9.116,8.569-18.889,16.601-26.514,26.597c19.503,7.019,48.774-18.78,64.496-38.261
	c-6.74-33.758-18.903-98.416,13.664-96.717c1.501-13.618,2.853-27.31,6.022-40.66c-69.129-27.112-96.928-57.971-134.57-20.566
	c-3.854,3.613-6.642,8.152-10.404,11.849c-28.022,28.603-99.717,80.75-125.75,139.961c-1.386,5.21-6.326,33.61-24.578,31.285
	c-17.918-2.233-29.409-31.292-7.217-51.823c23.066-20.79,32.629-52.512,59.216-95.596c5.148-8.036,20.422-33.656,11.033-35.389
	c-10.446-0.623-107.253,53.84-130.985,68.471c-15.41,9.044-38.99,26.075-49.748,24.364c-56.74-6.253-36.241-27.155-31.692-34.573
	c18.494-27.499,22.927-24.093,36.713-17.704c10.429,4.909,11.266,8.105,46.876-16.175c22.4-15.693,43.439-33.221,64.181-51.017
	c-36.952-47.119,91.859-114.493,140.564-129.447C360.515,70.81,401.635,32.076,464.627,29.919 M290.908,177.218
	c-37.443,24.393-47.28,48.824-32.776,54.954c41.838-32.108,42.413-38.039,54.658-67.822
	C305.35,168.389,298.059,172.697,290.908,177.218 M665.768,301.56c-12.358,55.086-50.944,95.51-76.827,104.489
	c-16.505,5.377-16.738-5.299-20.677-5.892c-1.439-13.951,14.659-66.209-29.293-92.529c3.976,37.551,2.933,132.681-26.245,156.248
	c-6.691,5.576-18.977,6.232-67.498,27.097c-4.011,1.649-7.458,4.706-11.886,5.262c-13.87,1.978-23.284-0.207-52.027,28.376
	c40.366,71.237,57.464,138.564,65.803,126.603c37.316-43.029,124.8-139.254,180.816-129.234
	c-26.403-56.602-99.345,16.787-142.898,61.532c-10.281-45.99,19.075-112.946,53.713-149.133c3.89-4.561,25.859-14.561,34.323-16.573
	c6.235-1.918,12.358,2.483,18.611,0.463c6.809-1.871,13.989-3.928,19.334-8.801C639.749,385.207,671.805,329.098,665.768,301.56z"/>
<path fill="#003399" stroke="#003399" stroke-width="0.0938" d="M49.451,385.03c1.4,0.12,1.34,2.55,0.73,3.51
	C48.851,388.32,48.771,385.95,49.451,385.03z"/>
<path fill="#003399" stroke="#003399" stroke-width="0.0938" d="M436.311,1255.48c1.32,0.11,1.38,2.52,0.79,3.48
	C435.651,1258.89,435.701,1256.4,436.311,1255.48z"/>
</svg>
